inDegrees=yes
name=ik_S46_A02_T02
DataType=double
version=3
OpenSimVersion=4.3-2021-08-27-4bc7ad9
endheader
time	pelvis_tilt	pelvis_list	pelvis_rotation	pelvis_tx	pelvis_ty	pelvis_tz	hip_flexion_r	hip_adduction_r	hip_rotation_r	knee_angle_r	knee_angle_r_beta	ankle_angle_r	subtalar_angle_r	mtp_angle_r	hip_flexion_l	hip_adduction_l	hip_rotation_l	knee_angle_l	knee_angle_l_beta	ankle_angle_l	subtalar_angle_l	mtp_angle_l	lumbar_extension	lumbar_bending	lumbar_rotation	arm_flex_r	arm_add_r	arm_rot_r	elbow_flex_r	pro_sup_r	wrist_flex_r	wrist_dev_r	arm_flex_l	arm_add_l	arm_rot_l	elbow_flex_l	pro_sup_l	wrist_flex_l	wrist_dev_l
21.89999999999962	-0.4456022780230867	0.1958811186828499	-101.5318554790922	0	0.9399999999999999	0	-10.49523942647792	-6.146771309290394	-3.252907510657359	10.54588259429703	0.1840603737992445	0	0	0	8.866589758429321	-3.344059344593016	-21.45038675563279	-3.178247842515349	-0.05547088929629906	0	0	0	0	0	0	39.60647660157834	-39.60647660157834	4.874621527642317	83.29179897899498	85.12537874151532	0	0	39.60647660157834	-39.60647660157834	4.874621527642317	83.29179897899498	85.1253787414913	0	0
21.91999999999962	-0.7364476417570047	0.1033463444648583	-101.1238342605129	0	0.9399999999999999	0	-10.5247470383366	-5.130794275081349	-3.265368699433348	9.467838687481498	0.1652449581442506	0	0	0	8.704786442880184	-3.589464959146891	-21.1701736860637	-3.970076666952307	-0.06929090939492011	0	0	0	0	0	0	39.60734454821614	-39.60734454821614	4.874662038732318	83.29235109246586	85.12533823042715	0	0	39.60734454821614	-39.60734454821614	4.874662038732318	83.29235109246586	85.12533823040314	0	0
21.93999999999962	-1.376112909562666	-0.09177423736214189	-100.3865411115737	0	0.9399999999999999	0	-10.63820094729932	-3.82753186585005	-3.181533892871366	8.518923151236693	0.1486832577134511	0	0	0	11.26575312766665	-4.875177423981012	-21.10192509364159	-1.891790667239783	-0.03301797590183465	0	0	0	0	0	0	39.63401850366181	-39.63401850366181	4.875728073846856	83.30687751593132	85.12427219535952	0	0	39.63401850366181	-39.63401850366181	4.875728073846856	83.30687751593132	85.12427219533568	0	0
21.95999999999962	-2.762420459998606	-0.07609649914316653	-99.21749388535588	0	0.9399999999999999	0	-10.66981339881125	-1.822258632312997	-2.963426238030133	8.048792645541733	0.1404779324750081	0	0	0	11.17523335192079	-6.027576277462772	-19.66532253894235	-2.663472307091578	-0.04648636129443754	0	0	0	0	0	0	39.63705154225826	-39.63705154225826	4.87586917724149	83.30880055780561	85.12413109197126	0	0	39.63705154225826	-39.63705154225826	4.87586917724149	83.30880055780561	85.12413109194745	0	0
21.97999999999962	-3.299063006263779	0.04532039385751747	-98.74755214463678	0	0.9399999999999999	0	-10.36511751468655	-0.6149095545753852	-1.715375294340214	6.468463031518744	0.1128959774435358	0	0	0	12.77262853837083	-6.86107553962021	-19.66806567544872	-2.07593434984342	-0.03623188946001552	0	0	0	0	0	0	39.64544544391489	-39.64544544391489	4.876216850937297	83.31353833408053	85.12378341829084	0	0	39.64544544391489	-39.64544544391489	4.876216850937297	83.31353833408053	85.12378341826707	0	0
21.99999999999962	-5.121691196838667	0.3695389901075249	-97.03994397588836	0	0.9399999999999999	0	-9.946089995006908	1.848162194654543	-1.528695929679576	5.318287700565927	0.09282163094319372	0	0	0	15.93492003709857	-8.93601962800512	-18.57279212988464	-0.232798224146904	-0.004063095504159241	0	0	0	0	0	0	39.6674989954698	-39.6674989954698	4.877097516323468	83.3255387832406	85.1229027529434	0	0	39.6674989954698	-39.6674989954698	4.877097516323468	83.3255387832406	85.12290275291981	0	0
22.01999999999962	-5.761782728754367	0.3916550781570005	-96.4654753537957	0	0.9399999999999999	0	-9.528788596356286	2.773220331012663	-0.8140552791567226	5.047901183658743	0.08810249597016404	0	0	0	17.16315846496735	-9.633728173838209	-18.28269715922301	-0.2809467558177388	-0.004903445911816076	0	0	0	0	0	0	39.66861073659131	-39.66861073659131	4.87714896346851	83.32623992939706	85.12285130580067	0	0	39.66861073659131	-39.66861073659131	4.87714896346851	83.32623992939706	85.12285130577708	0	0
22.03999999999962	-6.918998988678021	0.2612881014774162	-95.26335249368637	0	0.9399999999999999	0	-9.185966524511908	4.306881272183983	-1.068644628802413	4.121189312377379	0.07192832259898636	0	0	0	18.19639877129521	-10.53236485775594	-17.52504340874632	-2.486233479896516	-0.04339296019751045	0	0	0	0	0	0	39.66613999650635	-39.66613999650635	4.877072975955868	83.32520479122047	85.12292729331016	0	0	39.66613999650635	-39.66613999650635	4.877072975955868	83.32520479122047	85.12292729328651	0	0
22.05999999999962	-7.870160565339547	-0.05688531468912926	-94.24601617273163	0	0.9399999999999999	0	-8.80818245518237	5.574872642451573	-1.867606330366878	3.782829027196208	0.06602282156458796	0	0	0	18.04991860537285	-10.98688896055075	-16.33153211344174	-4.466669363270674	-0.07795808698703192	0	0	0	0	0	0	39.66830250853239	-39.66830250853239	4.877173042446563	83.32656854482516	85.12282722682399	0	0	39.66830250853239	-39.66830250853239	4.877173042446563	83.32656854482516	85.12282722680035	0	0
22.07999999999962	-8.58951123672044	-0.37229769419378	-93.37466914837798	0	0.9399999999999999	0	-8.370474462827373	6.472016926353302	-2.855705012434507	3.552139685787446	0.06199653300774777	0	0	0	18.01205233829805	-11.28398118839864	-14.92981136731625	-5.456358933747468	-0.09523142856450045	0	0	0	0	0	0	39.67034646609257	-39.67034646609257	4.877267478597685	83.32785556335003	85.12273279067713	0	0	39.67034646609257	-39.67034646609257	4.877267478597685	83.32785556335003	85.12273279065352	0	0
22.09999999999962	-9.135483253873698	-0.3835061496609403	-92.72057713209449	0	0.9399999999999999	0	-7.540853913234102	7.237373491513687	-3.260780604807556	3.405958119993727	0.05944518337892665	0	0	0	21.43677310198679	-13.14576252877057	-16.28408545805808	0.7195991261409342	0.0125593740456333	0	0	0	0	0	0	39.7157588324775	-39.7157588324775	4.879056751380709	83.35223686114503	85.12094351797261	0	0	39.7157588324775	-39.7157588324775	4.879056751380709	83.35223686114503	85.1209435179493	0	0
22.11999999999962	-9.4174655193939	-0.2404658300048154	-92.24348210710352	0	0.9399999999999999	0	-6.446043457237955	7.83444837539388	-3.143917211670197	3.523536104273949	0.06149730633247465	0	0	0	22.05595384434114	-13.17030184895821	-17.84786034977315	1.602414722046206	0.02796741288213607	0	0	0	0	0	0	39.73024631145663	-39.73024631145663	4.879632493682698	83.3600822042626	85.12036777569593	0	0	39.73024631145663	-39.73024631145663	4.879632493682698	83.3600822042626	85.12036777567273	0	0
22.13999999999962	-8.921757315187216	-0.9091294388651314	-91.27140299973473	0	0.9399999999999999	0	-6.16688179148565	7.597012389824342	-3.652905322304361	3.52363879400543	0.06149909860639698	0	0	0	21.99897902198429	-12.11226011839867	-15.85894233450398	4.346182176824075	0.0758551888770745	0	0	0	0	0	0	39.73218300130151	-39.73218300130151	4.879720887919312	83.36128685849225	85.12027938146329	0	0	39.73218300130151	-39.73218300130151	4.879720887919312	83.36128685849225	85.12027938144013	0	0
22.15999999999962	-8.124373453385058	-1.592630668752377	-90.4442211889463	0	0.9399999999999999	0	-6.046011239512022	6.957043583706662	-4.3750865972375	3.769433248887827	0.06578902112723947	0	0	0	20.95803380925778	-11.00129608366065	-17.60383564539333	6.187989722736297	0.1080007947413194	0	0	0	0	0	0	39.73502661871007	-39.73502661871007	4.879851371629075	83.36306512374178	85.12014889775938	0	0	39.73502661871007	-39.73502661871007	4.879851371629075	83.36306512374178	85.12014889773631	0	0
22.17999999999962	-7.335190822568143	-2.092493308101264	-89.77391067520129	0	0.9399999999999999	0	-6.443741906641791	6.256467656640471	-5.077419733860791	3.142183889392729	0.05484145457302444	0	0	0	20.05699364349748	-10.79547410574168	-20.52083472383416	8.702858768722306	0.1518935398502639	0	0	0	0	0	0	39.75289860926293	-39.75289860926293	4.880565806750406	83.37280040896439	85.11943446266946	0	0	39.75289860926293	-39.75289860926293	4.880565806750406	83.37280040896439	85.11943446264651	0	0
22.19999999999962	-6.662252827074957	-2.365455520567006	-89.24255623720899	0	0.9399999999999999	0	-5.571924003928672	5.593071208794654	-5.789267296652941	3.444705529162741	0.06012145324554338	0	0	0	19.61015769866543	-11.87229843248925	-22.41646456478227	14.45677831124079	0.2523183807620573	0	0	0	0	0	0	39.75584980759189	-39.75584980759189	4.880700712868537	83.37463893275131	85.11929955655748	0	0	39.75584980759189	-39.75584980759189	4.880700712868537	83.37463893275131	85.11929955653453	0	0
22.21999999999962	-6.140046019846388	-2.457362768712587	-88.88579565299099	0	0.9399999999999999	0	-5.030759911311696	4.977173129273361	-6.299343002101672	3.345899721046758	0.05839696657382575	0	0	0	19.64786671899942	-13.13695702586938	-20.69901348408317	19.68731899617262	0.3436085373736372	0	0	0	0	0	0	39.81152181468844	-39.81152181468844	4.882849204551388	83.40391443864686	85.11715106496844	0	0	39.81152181468844	-39.81152181468844	4.882849204551388	83.40391443864686	85.11715106494593	0	0
22.23999999999961	-5.931451897434676	-2.505321867354989	-88.75247870425557	0	0.9399999999999999	0	-4.412524380043306	4.642165570399444	-6.423628166237532	2.750270256891479	0.04800127130242658	0	0	0	18.91967115186143	-13.84332660491119	-17.99681265023792	24.12154419599109	0.421000366885373	0	0	0	0	0	0	39.84179002294294	-39.84179002294294	4.884015969223911	83.41981284465363	85.11598430034687	0	0	39.84179002294294	-39.84179002294294	4.884015969223911	83.41981284465363	85.11598430032454	0	0
22.25999999999961	-5.376692434602057	-2.572146661481792	-88.61210619418104	0	0.9399999999999999	0	-3.88970616703917	3.940263663678244	-6.563169585278963	2.9596971457941	0.05165646005598569	0	0	0	17.36590849428068	-14.42185312117522	-16.63310693138165	29.20039462289431	0.5096430290511537	0	0	0	0	0	0	39.89234523006105	-39.89234523006105	4.885948086886389	83.44613977286367	85.11405218276857	0	0	39.89234523006105	-39.89234523006105	4.885948086886389	83.44613977286367	85.1140521827466	0	0
22.27999999999961	-4.975061979576009	-2.543413824411128	-88.62771145215477	0	0.9399999999999999	0	-3.276285022909493	3.337174383958017	-6.581556459166012	2.97203681796311	0.05187182796395162	0	0	0	15.57203353899432	-14.95969366197094	-17.56516008919838	32.4755931617022	0.5668060272098586	0	0	0	0	0	0	39.89436610010691	-39.89436610010691	4.88603866819007	83.44737419111661	85.11396160146892	0	0	39.89436610010691	-39.89436610010691	4.88603866819007	83.44737419111661	85.11396160144703	0	0
22.29999999999961	-4.749775363061448	-2.522601719414694	-88.66038545283463	0	0.9399999999999999	0	-2.585685438885095	2.913183448654665	-6.585714048477567	3.073301141615716	0.05363922382649478	0	0	0	13.38416484742642	-15.20446032932485	-19.26401449502795	40.07748893831037	0.6994841379051224	0	0	0	0	0	0	39.94667632322736	-39.94667632322736	4.88802307393903	83.47441340902073	85.11197719580628	0	0	39.94667632322736	-39.94667632322736	4.88802307393903	83.47441340902073	85.11197719578475	0	0
22.31999999999961	-4.244788901337671	-2.385216340393165	-88.61024545197773	0	0.9399999999999999	0	-1.82305283007234	2.150838785089146	-6.661933013949867	3.368632180158984	0.05879372283240906	0	0	0	11.18657387640287	-14.55064224765888	-19.76809554861665	41.61474635298369	0.7263143412418677	0	0	0	0	0	0	39.94895713136601	-39.94895713136601	4.888124526336773	83.47579595918533	85.11187574341299	0	0	39.94895713136601	-39.94895713136601	4.888124526336773	83.47579595918533	85.11187574339151	0	0
